<?xml version="1.0" ?><svg height="24px" version="1.1" viewBox="0 0 24 24" width="24px" xmlns="http://www.w3.org/2000/svg" xmlns:sketch="http://www.bohemiancoding.com/sketch/ns" xmlns:xlink="http://www.w3.org/1999/xlink"><title/><desc/><defs/><g fill="none" fill-rule="evenodd" id="miu" stroke="none" stroke-width="1"><g id="Artboard-1" transform="translate(-719.000000, -119.000000)"><g id="slice" transform="translate(215.000000, 119.000000)"/><path d="M720,130.5 C720,124.148725 725.148725,119 731.5,119 C737.851275,119 743,124.148725 743,130.5 C743,136.851275 737.851275,142 731.5,142 C725.148725,142 720,136.851275 720,130.5 Z M742,130.5 C742,124.70101 737.29899,120 731.5,120 C725.70101,120 721,124.70101 721,130.5 C721,136.29899 725.70101,141 731.5,141 C737.29899,141 742,136.29899 742,130.5 Z M731.75,126 C732.440356,126 733,125.440356 733,124.75 C733,124.059644 732.440356,123.5 731.75,123.5 C731.059644,123.5 730.5,124.059644 730.5,124.75 C730.5,125.440356 731.059644,126 731.75,126 Z M729,127 L729,128 L730.5,128 L730.5,135 L729,135 L729,136 L734.5,136 L734.5,135 L733,135 L733,127 L729,127 Z" fill="#000000" id="circle-info-more-information-detail-outline-stroke"/></g></g></svg>